<?xml version="1.0" encoding="utf-8"?><svg viewBox="0 0 55 14" xmlns="http://www.w3.org/2000/svg" xmlns:xlink="http://www.w3.org/1999/xlink"><style>:root>svg{display:none}:root>svg:target{display:block}</style><svg fill="none" viewBox="0 0 55 11" id="neteller" xmlns="http://www.w3.org/2000/svg"><path d="M53.953 1.661c-.691-.494-1.738-.743-3.11-.743H47.25l-1.335 7.567h-4.707l.302-1.717h2.836l.336-1.928-2.834.004.303-1.71h2.92l.39-2.216h-5.932l-1.268 7.178h-2.176L37.36.918h-3.1l-1.268 7.178h-2.12L32.15.918h-3.098l-1.338 7.567h-4.74l.3-1.717h2.846l.336-1.917-2.844-.003.302-1.713h2.953l.386-2.217H8.771L7.72 6.914 5.624.918H2.407l-1.73 9.786h3.071l1.048-6.162 2.033 6.162h11.01l1.338-7.57H20.9l-1.338 7.57H48.53l.84-4.778 1.358 4.778h3.074l-1.408-3.905.322-.072c.71-.159 1.263-.5 1.648-1.01.385-.516.581-1.178.581-1.973 0-.926-.325-1.607-.992-2.083zM15.166 8.485h-4.702l.304-1.717h2.95l.334-1.934H11.13l.28-1.699h4.697l-.942 5.35zm36.256-3.296c-.31.225-.757.335-1.37.335h-.608l.467-2.626h.446c.51 0 .88.085 1.136.258.2.137.438.406.438.915 0 .616-.277.947-.51 1.118h.001z" fill="#fff"/></svg><svg fill="none" viewBox="0 0 49 14" id="paypal" xmlns="http://www.w3.org/2000/svg"><path d="M42.853 2.824c-.532-.303-1.407-.454-2.586-.454-.57 0-1.18.038-1.75.151-.419.076-.457.076-.723.152-.532.113-.646.68-.646.68l-.19.719c-.115.454.151.454.266.416.228-.076.38-.151.875-.265.456-.113.95-.189 1.369-.189.57 0 1.027.076 1.293.19.304.113.419.34.419.642 0 .076 0 .151-.038.19-.038.037-.077.113-.19.113-.837.037-1.408.113-2.13.226-.686.114-1.332.265-1.827.492a2.978 2.978 0 00-1.255.983c-.266.416-.418.908-.418 1.513 0 .567.19 1.021.57 1.362.38.34.913.529 1.522.529.38 0 .684-.038.913-.076a2.43 2.43 0 00.684-.227c.19-.075.38-.189.609-.34.228-.151.342-.227.533-.378l-.038.227c-.077.265.114.491.38.53h1.369c.267-.039.57-.265.609-.53l1.065-4.5c.038-.114.038-.227.038-.379 0-.151.038-.264.038-.34.076-.643-.19-1.135-.76-1.437zm-2.548 5.408c-.19.113-.38.189-.57.302a1.945 1.945 0 01-.762.152c-.342 0-.646-.038-.837-.152-.19-.113-.266-.264-.266-.53 0-.302.076-.529.19-.718.153-.189.343-.302.61-.416.265-.075.57-.15.95-.227.342-.037.99-.113 1.065-.113.076 0 .152-.038.114.19 0 .113-.19.869-.304 1.21.038.113-.114.264-.19.302zM24.747 2.481c-.304 0-.723.265-.913.568 0 0-2.054 3.517-2.282 3.857-.114.19-.228.076-.228 0s-.647-3.857-.647-3.857c-.076-.303-.38-.568-.799-.568h-1.293c-.304 0-.495.265-.419.53 0 0 .99 5.559 1.18 6.845.114.718 0 .832 0 .832l-1.294 2.231c-.19.303-.076.53.229.53h1.483c.304 0 .723-.227.913-.53l5.782-9.643s.532-.832.038-.832c-.342.037-1.75.037-1.75.037zM6.642 4.45c-.419.302-1.027.491-1.826.491h-.38a.458.458 0 01-.457-.53l.456-1.89c.077-.303.38-.567.685-.53h.457c.532 0 .95.076 1.255.265.266.19.418.454.418.87.038.567-.19.983-.608 1.324zm3.08-2.874c-.19-.34-.456-.643-.798-.832C8.582.517 8.164.365 7.67.29 7.212.176 6.642.138 5.995.138H2.99c-.304 0-.609.265-.685.53L.251 9.442c-.076.302.114.53.419.53h1.483a.73.73 0 00.685-.53l.494-2.118a.73.73 0 01.685-.53h.418c1.75 0 3.12-.378 4.109-1.096.989-.719 1.483-1.664 1.483-2.837 0-.491-.114-.945-.304-1.285zM32.81 4.487c-.418.303-1.027.454-1.826.454h-.342a.458.458 0 01-.456-.53l.418-1.853a.73.73 0 01.685-.529h.456c.57 0 .951.113 1.256.265.266.189.418.454.418.87.038.529-.19.983-.609 1.323zm3.12-2.874c-.19-.34-.457-.643-.8-.832-.342-.227-.76-.378-1.255-.454-.494-.075-1.065-.113-1.711-.151h-3.005c-.305 0-.609.265-.685.53l-2.016 8.773c-.076.303.114.53.418.53h1.446a.73.73 0 00.684-.53l.495-2.118c.076-.302.38-.567.685-.53h.418c1.75 0 3.12-.377 4.108-1.096.99-.718 1.484-1.664 1.484-2.836 0-.53-.114-.946-.267-1.286zM16.682 2.824c-.533-.303-1.407-.454-2.587-.454-.57 0-1.179.038-1.75.151-.418.076-.456.076-.722.152-.533.113-.647.68-.647.68l-.19.719c-.114.454.152.454.266.416.228-.076.38-.151.875-.265.457-.113.951-.189 1.37-.189.57 0 1.026.076 1.293.19.304.113.418.34.418.642 0 .076 0 .151-.038.19-.038.075-.076.113-.19.113-.837.037-1.407.113-2.13.226-.685.114-1.332.265-1.826.492a2.978 2.978 0 00-1.255.983c-.267.416-.419.908-.419 1.513 0 .567.19 1.021.57 1.362.381.34.914.529 1.522.529.38 0 .685-.038.913-.076a2.43 2.43 0 00.685-.227c.19-.075.38-.189.609-.34.228-.151.342-.227.532-.378l-.038.227c-.076.265.114.491.38.53H15.693c.266-.039.57-.265.609-.53l1.065-4.5c.038-.114.038-.227.038-.379 0-.151.038-.264.038-.34.076-.643-.229-1.135-.761-1.437zm-2.549 5.37c-.19.113-.38.19-.57.303a1.945 1.945 0 01-.761.15c-.342 0-.647-.037-.837-.15-.19-.114-.266-.265-.266-.53 0-.302.076-.53.228-.718.152-.19.342-.303.609-.416.266-.076.57-.152.95-.227.343-.038.99-.114 1.066-.114.076 0 .152-.038.114.19 0 .113-.19.87-.304 1.21-.039.113-.153.264-.229.302zM47.84.251h-1.293a.73.73 0 00-.685.53v.038s-.038.113-.076.34l-1.788 7.98c-.037.189-.076.302-.076.34-.076.265.114.492.38.53h1.332a.73.73 0 00.685-.53v-.038l1.94-8.698c.076-.265-.114-.492-.419-.492z" fill="#fff"/></svg><svg fill="none" viewBox="0 0 39 12" id="skrill" xmlns="http://www.w3.org/2000/svg"><path d="M30.426 1.165l3.088-.5v10.928h-3.088V1.165zm4.533 0v10.382h3.09V.62l-3.09.546zm-8.968 10.428h3.09V3.579h-3.09v8.014zM5.416 4.717c-.399-.045-1.296-.091-1.296-.82 0-.91 1.296-.91 1.794-.91.847 0 1.993.227 2.79.455 0 0 .448.137.847.273h.05V1.257h-.05C8.554.937 7.458.665 5.416.665 1.928.665.683 2.53.683 4.125c0 .91.448 3.096 4.434 3.324.348 0 1.245.046 1.245.82 0 .637-.747 1.001-1.993 1.001-1.345 0-2.69-.318-3.487-.637v2.55c1.196.273 2.54.41 4.135.41 3.438 0 4.982-1.776 4.982-3.506 0-1.913-1.694-3.188-4.583-3.37zm18.782-1.23c-2.89.092-4.334 1.276-4.334 3.598v4.508h3.138V7.95c0-1.412.2-2.004 2.043-2.049V3.533c-.299-.09-.847-.045-.847-.045zm-8.42.092c-.05.182-.548 1.457-1.793 2.777V.665l-3.189.592v10.336h3.189V8.405c.946 1.275 1.395 3.188 1.395 3.188h3.836c-.399-1.457-2.043-4.098-2.043-4.098 1.495-1.73 2.143-3.598 2.242-3.87h-3.637v-.046zm11.758-.729c.847 0 1.544-.637 1.544-1.411S28.383.027 27.536.027c-.847 0-1.545.638-1.545 1.412 0 .774.698 1.411 1.545 1.411z" fill="#fff"/></svg></svg>