<svg width="60" height="48" viewBox="0 0 60 48" fill="none" xmlns="http://www.w3.org/2000/svg">
<path fill-rule="evenodd" clip-rule="evenodd" d="M4.71772 47.5245C4.46062 47.5245 4.19074 47.5023 3.9072 47.4488C3.01439 47.2587 2.28051 46.8413 1.7761 46.2368C0.595892 44.9223 0.471573 43.6762 0.446026 42.5132C0.442312 41.6324 0.445877 39.1698 0.445877 39.1698L0.448105 35.1847L0.445877 27.5221C0.445877 27.5206 0.448105 25.5304 0.448105 24.5204C0.430133 22.845 0.523113 21.1324 1.31804 19.9962C2.21798 18.6891 3.73446 17.9509 4.84783 17.5633C13.3427 14.7858 20.6666 12.2251 27.7494 9.74913C34.8562 7.26424 42.2047 4.6947 50.7261 1.90978C52.0012 1.51172 52.0106 1.50875 52.492 1.34685L52.7979 1.24289C52.9787 1.18199 53.1544 1.12108 53.3258 1.06167C55.0285 0.470523 56.4991 -0.041901 58.3602 1.47161L58.3626 1.47458C59.5013 2.41477 59.6604 3.77084 59.6717 4.84767C59.6745 5.118 59.6738 5.34376 59.6719 5.57101C59.6656 6.65082 59.6717 9.64368 59.6719 9.67487V17.6212C59.6719 17.6568 59.6793 21.2809 59.6719 22.5925L59.6727 22.9742C59.6741 23.4747 59.6756 23.9886 59.6723 24.5887C59.665 25.8898 59.4274 26.977 58.966 27.8192C58.2145 29.2228 56.8186 29.9521 55.7802 30.3145C47.3214 33.193 39.1041 36.0135 31.1574 38.7405C23.2384 41.4571 15.0496 44.2673 6.62424 47.1354C6.08924 47.3344 5.45695 47.5245 4.71772 47.5245Z" fill="black"/>
<path fill-rule="evenodd" clip-rule="evenodd" d="M55.8287 1.31653C55.1457 1.31653 54.447 1.55863 53.6003 1.8542C53.4264 1.91361 53.2478 1.97601 53.0641 2.0384L52.7592 2.14087C52.2782 2.30277 52.2595 2.3087 50.9804 2.70825C42.4726 5.48871 35.128 8.05679 28.0255 10.5402C20.9386 13.0177 13.6105 15.5798 5.11549 18.3573C4.12851 18.7019 2.78061 19.3509 2.00782 20.4723C1.25656 21.5462 1.27794 23.5499 1.28834 24.5123C1.28834 25.5283 1.28597 27.5186 1.28597 27.5186L1.28834 35.1812L1.28597 39.1662C1.28597 39.1662 1.2824 41.6273 1.28611 42.4992C1.31359 43.7498 1.50653 44.6752 2.41063 45.6822C2.80274 46.1515 3.37354 46.4709 4.07103 46.6194C4.95448 46.7857 5.68406 46.5837 6.33937 46.3387C14.7754 43.4676 22.9636 40.6574 30.8822 37.9394C38.8294 35.2124 47.0472 32.3933 55.5035 29.5148C56.3974 29.2029 57.5981 28.5835 58.2236 27.4146C58.6191 26.6927 58.8218 25.7407 58.8282 24.5806C58.8315 23.9821 58.8301 23.4711 58.8288 22.9736L58.8278 22.5874C58.8355 21.2759 58.8279 17.6547 58.8278 17.6191V9.67129C58.8278 9.64159 58.8217 6.64576 58.8278 5.5615C58.8297 5.33722 58.8304 5.11591 58.8278 4.85302C58.8178 3.90391 58.6911 2.83599 57.8265 2.12156C57.1008 1.5319 56.4716 1.31653 55.8287 1.31653Z" fill="black"/>
<path d="M47.6748 7.04765C50.4857 6.08518 52.9673 5.25044 55.7791 4.29242C55.8953 4.25381 55.9367 4.29688 55.9367 4.38451C55.9361 4.49888 55.9367 4.90585 55.9367 4.90585V19.8702C55.9231 22.7353 55.9367 24.7493 55.9367 24.7493C55.9367 24.7493 55.9436 26.0267 55.9415 26.6654C55.9415 26.7099 55.9021 26.7381 55.8634 26.7485C53.1741 27.6575 50.4851 28.568 47.7956 29.477C47.7375 29.5097 47.6671 29.4622 47.6754 29.3968C47.6637 27.9338 47.6736 25.0093 47.6736 25.0093V17.6704V8.08289C47.6736 8.08289 47.6766 7.32391 47.6748 7.04765Z" fill="#FFF200"/>
<path d="M46.2714 7.4607C46.3752 7.43397 46.5154 7.51268 46.5154 7.61665C46.5218 8.42613 46.5154 10.2441 46.5154 10.2441V24.9114C46.5154 24.9114 46.4876 26.3907 46.5154 27.4542C46.5237 27.778 46.5225 28.1033 46.5245 28.3528C46.5373 28.4345 46.4221 28.4716 46.386 28.3988C43.6579 24.8876 40.9291 21.3764 38.2022 17.8666C38.1583 17.8013 38.0815 17.7478 38.0797 17.6632C38.0781 15.1991 38.073 12.7572 38.0775 10.2946C38.0775 10.259 38.0983 10.2248 38.1246 10.2129C40.8285 9.29651 43.5688 8.37713 46.2714 7.4607Z" fill="#FFF200"/>
<path d="M28.9645 13.3678C30.1717 12.9667 31.1404 12.64 32.3475 12.2374C32.4412 12.1973 32.485 12.3102 32.5361 12.3667C37.0468 18.1727 41.559 23.9802 46.071 29.7862C46.1167 29.8545 46.2065 29.9169 46.1736 30.0089C43.4538 30.9417 40.729 31.8611 38.0084 32.7909C37.9684 32.8087 37.9209 32.8072 37.897 32.7657C37.104 31.72 36.3163 30.6684 35.5216 29.6213C33.3346 30.3639 31.1465 31.1066 28.9591 31.8477C28.901 31.8789 28.8375 31.824 28.848 31.7631C28.8348 30.358 28.8545 28.99 28.8419 27.5864C28.847 27.475 28.8649 27.4364 28.9949 27.3919C30.3208 26.9285 31.507 26.52 32.8338 26.0566C31.4758 24.2505 30.2922 22.6657 28.9327 20.861C28.8286 20.7036 28.847 20.7051 28.847 20.6694C28.8456 20.567 28.847 20.2253 28.847 20.2253V19.3312V17.0364C28.847 17.0364 28.8443 16.3398 28.847 15.9937C28.8523 15.2853 28.8427 14.7387 28.847 14.0242C28.8477 13.8935 28.8453 13.6915 28.8476 13.5504C28.8476 13.39 28.8786 13.396 28.9645 13.3678Z" fill="#FFF200"/>
<path d="M27.4788 13.8927C27.6812 13.8258 27.817 13.9239 27.817 14.0724V15.978C27.817 15.978 27.8097 17.701 27.817 20.1621C27.8202 21.2255 27.814 23.7699 27.814 23.7699C27.814 23.7699 27.815 24.5719 27.817 24.9744C27.825 26.5667 27.8182 29.8432 27.8182 29.8432C27.8182 29.8432 27.8098 31.2216 27.817 31.8885C27.8289 32.995 27.8207 33.9619 27.817 34.9066C27.8174 34.9853 27.7014 34.9987 27.6704 34.9318C25.0009 31.5201 22.2964 28.0846 19.6329 24.6684C19.6311 24.4724 19.6329 24.009 19.6329 24.009L19.6351 21.6503C19.6351 21.6503 19.6321 19.9943 19.6329 19.1892C19.6332 18.7793 19.636 17.7262 19.636 17.7262L19.6369 17.4009C19.6369 17.4009 19.6351 16.9984 19.6329 16.8202C19.6329 16.584 19.6468 16.5617 19.7361 16.5127C22.3885 15.6126 24.8259 14.7913 27.4788 13.8927Z" fill="#FFF200"/>
<path d="M12.5224 19.0112C12.5779 18.9859 12.6507 19.032 12.6407 19.1003C12.6092 26.4866 12.6685 33.7215 12.6407 41.1078C12.6381 41.2044 12.6851 41.4435 12.4996 41.494C9.79239 42.4119 7.15674 43.3016 4.45009 44.218C4.25953 44.2819 4.26057 44.1452 4.25953 44.0784C4.25567 43.5526 4.25953 42.5129 4.25953 42.5129V26.656L4.2628 22.7704C4.2628 22.7704 4.26116 22.2194 4.25983 22.0055C4.25983 21.8436 4.31641 21.8005 4.42143 21.7545C7.21674 20.8084 9.72733 19.9573 12.5224 19.0112Z" fill="#FFF200"/>
<path d="M13.7596 19.185C13.8006 19.1597 13.8545 19.1746 13.8799 19.2162C18.3476 24.9167 22.8654 30.6173 27.3334 36.3178C27.3876 36.3624 27.3665 36.4485 27.2958 36.4604C24.5971 37.3754 21.8979 38.2888 19.1992 39.2008C19.1127 39.2438 19.0674 39.1414 19.023 39.0879C17.2903 36.8302 15.5571 34.5726 13.824 32.315C13.7887 32.2645 13.7321 32.2199 13.7345 32.1531C13.7477 27.8561 13.7248 23.5592 13.7343 19.2607C13.7348 19.234 13.7414 19.2058 13.7596 19.185Z" fill="#FFF200"/>
</svg>
