<svg width="49" height="14" viewBox="0 0 49 14" fill="none" xmlns="http://www.w3.org/2000/svg">
<path d="M42.8534 2.82384C42.3208 2.5213 41.4459 2.37003 40.2667 2.37003C39.6961 2.37003 39.0875 2.40784 38.5169 2.5213C38.0985 2.59693 38.0604 2.59693 37.7942 2.67257C37.2616 2.78602 37.1475 3.35329 37.1475 3.35329L36.9573 4.07184C36.8432 4.52565 37.1095 4.52565 37.2236 4.48784C37.4518 4.4122 37.604 4.33656 38.0985 4.22311C38.555 4.10966 39.0495 4.03402 39.4679 4.03402C40.0385 4.03402 40.4949 4.10966 40.7612 4.22311C41.0655 4.33656 41.1796 4.56347 41.1796 4.86602C41.1796 4.94165 41.1796 5.01729 41.1416 5.05511C41.1036 5.09292 41.0655 5.16856 40.9514 5.16856C40.1146 5.20638 39.544 5.28201 38.8212 5.39547C38.1365 5.50892 37.4899 5.6602 36.9954 5.8871C36.4628 6.11401 36.0444 6.45437 35.7401 6.87037C35.4738 7.28637 35.3216 7.77801 35.3216 8.38309C35.3216 8.95036 35.5118 9.40418 35.8922 9.74454C36.2726 10.0849 36.8052 10.274 37.4138 10.274C37.7942 10.274 38.0985 10.2362 38.3267 10.1984C38.555 10.1605 38.7832 10.0849 39.0114 9.97145C39.2016 9.89582 39.3918 9.78236 39.62 9.63109C39.8483 9.47982 39.9624 9.40418 40.1526 9.25291L40.1146 9.47982C40.0385 9.74454 40.2287 9.97145 40.4949 10.0093H40.533C40.7232 10.0093 41.3318 10.0093 41.6361 10.0093H41.8263C41.8263 10.0093 41.8263 10.0093 41.8643 10.0093C42.1306 9.97145 42.4349 9.74454 42.473 9.47982L43.5381 4.97947C43.5761 4.86602 43.5761 4.75256 43.5761 4.60129C43.5761 4.45002 43.6141 4.33656 43.6141 4.26093C43.6902 3.61802 43.4239 3.12639 42.8534 2.82384ZM40.3047 8.23182C40.1146 8.34528 39.9244 8.42091 39.7342 8.53437C39.4679 8.64782 39.2016 8.68564 38.9734 8.68564C38.631 8.68564 38.3267 8.64782 38.1365 8.53437C37.9463 8.42091 37.8703 8.26964 37.8703 8.00491C37.8703 7.70237 37.9463 7.47546 38.0604 7.28637C38.2126 7.09728 38.4028 6.98383 38.6691 6.87037C38.9353 6.79474 39.2397 6.7191 39.62 6.64346C39.9624 6.60565 40.6091 6.53001 40.6851 6.53001C40.7612 6.53001 40.8373 6.49219 40.7993 6.7191C40.7993 6.83255 40.6091 7.58892 40.4949 7.92928C40.533 8.04273 40.3808 8.194 40.3047 8.23182Z" fill="white"/>
<path d="M24.7472 2.48133C24.4429 2.48133 24.0245 2.74606 23.8343 3.0486C23.8343 3.0486 21.7802 6.56568 21.5519 6.90604C21.4378 7.09513 21.3237 6.98168 21.3237 6.90604C21.3237 6.8304 20.677 3.0486 20.677 3.0486C20.6009 2.74606 20.2966 2.48133 19.8782 2.48133H18.5849C18.2806 2.48133 18.0904 2.74606 18.1664 3.01078C18.1664 3.01078 19.1555 8.57004 19.3457 9.85585C19.4598 10.5744 19.3457 10.6878 19.3457 10.6878L18.0523 12.9191C17.8621 13.2217 17.9762 13.4486 18.2806 13.4486H19.7641C20.0684 13.4486 20.4868 13.2217 20.677 12.9191L26.459 3.27551C26.459 3.27551 26.9915 2.44351 26.497 2.44351C26.1546 2.48133 24.7472 2.48133 24.7472 2.48133Z" fill="white"/>
<path d="M6.64172 4.44974C6.22329 4.75229 5.61467 4.94138 4.81585 4.94138H4.43546C4.13115 4.94138 3.94095 4.67665 3.97899 4.41193L4.43546 2.52103C4.51154 2.21848 4.81585 1.95375 5.12016 1.99157H5.57663C6.10917 1.99157 6.5276 2.06721 6.83191 2.2563C7.09819 2.44539 7.25034 2.71012 7.25034 3.12611C7.28838 3.69338 7.06015 4.10938 6.64172 4.44974ZM9.72288 1.57557C9.53268 1.23521 9.26641 0.932668 8.92406 0.743577C8.58171 0.516669 8.16328 0.365397 7.66877 0.289761C7.21231 0.176307 6.64172 0.138489 5.99506 0.138489H2.98998C2.68566 0.138489 2.38135 0.403215 2.30527 0.667941L0.251167 9.44173C0.175089 9.74427 0.365284 9.97118 0.669596 9.97118H2.15312C2.45743 9.97118 2.76174 9.74427 2.83782 9.44173L3.33233 7.32392C3.4084 7.02137 3.71272 6.79446 4.01703 6.79446H4.43546C6.18525 6.79446 7.55466 6.41628 8.54367 5.69774C9.53268 4.9792 10.0272 4.03375 10.0272 2.86139C10.0272 2.36975 9.91307 1.91594 9.72288 1.57557Z" fill="white"/>
<path d="M32.8103 4.48719C32.3919 4.78973 31.7833 4.94101 30.9845 4.94101H30.6421C30.3378 4.94101 30.1476 4.67628 30.1856 4.41155L30.6041 2.55847C30.6801 2.25593 30.9844 2.02902 31.2888 2.02902H31.7452C32.3158 2.02902 32.6962 2.14247 33.0005 2.29374C33.2668 2.48283 33.4189 2.74756 33.4189 3.16356C33.457 3.69301 33.2288 4.14683 32.8103 4.48719ZM35.9295 1.61302C35.7393 1.27266 35.4731 0.970113 35.1307 0.781022C34.7883 0.554114 34.3699 0.402842 33.8754 0.327206C33.3809 0.25157 32.8103 0.213752 32.1637 0.175934H29.1586C28.8543 0.175934 28.55 0.44066 28.4739 0.705386L26.4578 9.47917C26.3817 9.78172 26.5719 10.0086 26.8762 10.0086H28.3217C28.626 10.0086 28.9303 9.78172 29.0064 9.47917L29.5009 7.36136C29.577 7.05882 29.8813 6.79409 30.1856 6.83191H30.6041C32.3539 6.83191 33.7233 6.45373 34.7123 5.73519C35.7013 5.01664 36.1958 4.07119 36.1958 2.89883C36.1958 2.36938 36.0817 1.95338 35.9295 1.61302Z" fill="white"/>
<path d="M16.682 2.82384C16.1494 2.5213 15.2745 2.37003 14.0953 2.37003C13.5247 2.37003 12.9161 2.40784 12.3455 2.5213C11.9271 2.59693 11.889 2.59693 11.6228 2.67257C11.0902 2.78602 10.9761 3.35329 10.9761 3.35329L10.7859 4.07184C10.6718 4.52565 10.9381 4.52565 11.0522 4.48784C11.2804 4.4122 11.4326 4.33656 11.9271 4.22311C12.3836 4.10966 12.8781 4.03402 13.2965 4.03402C13.8671 4.03402 14.3235 4.10966 14.5898 4.22311C14.8941 4.33656 15.0082 4.56347 15.0082 4.86602C15.0082 4.94165 15.0082 5.01729 14.9702 5.05511C14.9322 5.13074 14.8941 5.16856 14.78 5.16856C13.9432 5.20638 13.3726 5.28201 12.6498 5.39547C11.9651 5.50892 11.3185 5.6602 10.824 5.8871C10.2914 6.11401 9.87298 6.45437 9.56867 6.87037C9.30239 7.28637 9.15024 7.77801 9.15024 8.38309C9.15024 8.95036 9.34043 9.40418 9.72082 9.74454C10.1012 10.0849 10.6338 10.274 11.2424 10.274C11.6228 10.274 11.9271 10.2362 12.1553 10.1984C12.3836 10.1605 12.6118 10.0849 12.84 9.97145C13.0302 9.89582 13.2204 9.78236 13.4486 9.63109C13.6769 9.47982 13.791 9.40418 13.9812 9.25291L13.9432 9.47982C13.8671 9.74454 14.0573 9.97145 14.3235 10.0093H14.3616C14.5518 10.0093 15.1604 10.0093 15.4647 10.0093H15.6549C15.6549 10.0093 15.6549 10.0093 15.6929 10.0093C15.9592 9.97145 16.2635 9.74454 16.3016 9.47982L17.3667 4.97947C17.4047 4.86602 17.4047 4.75256 17.4047 4.60129C17.4047 4.45002 17.4427 4.33656 17.4427 4.26093C17.5188 3.61802 17.2145 3.12639 16.682 2.82384ZM14.1333 8.194C13.9432 8.30746 13.753 8.38309 13.5628 8.49655C13.2965 8.61 13.0302 8.64782 12.802 8.64782C12.4596 8.64782 12.1553 8.61 11.9651 8.49655C11.7749 8.38309 11.6989 8.23182 11.6989 7.9671C11.6989 7.66455 11.7749 7.43764 11.9271 7.24855C12.0792 7.05946 12.2694 6.94601 12.5357 6.83255C12.802 6.75692 13.1063 6.68128 13.4867 6.60565C13.829 6.56783 14.4757 6.49219 14.5518 6.49219C14.6279 6.49219 14.7039 6.45437 14.6659 6.68128C14.6659 6.79474 14.4757 7.5511 14.3616 7.89146C14.3235 8.00491 14.2094 8.15619 14.1333 8.194Z" fill="white"/>
<path d="M47.8404 0.251404H46.5471C46.2428 0.251404 45.9385 0.478312 45.8624 0.780856V0.818674C45.8624 0.818674 45.8244 0.932129 45.7863 1.15904L43.9985 9.13864C43.9605 9.32773 43.9224 9.44119 43.9224 9.47901C43.8463 9.74373 44.0365 9.97064 44.3028 10.0085H45.6342C45.9385 10.0085 46.2428 9.78155 46.3189 9.47901C46.3189 9.47901 46.3189 9.47901 46.3189 9.44119L48.2589 0.743038C48.3349 0.478312 48.1448 0.251404 47.8404 0.251404Z" fill="white"/>
</svg>
