<svg width="213" height="26" viewBox="0 0 213 26" fill="none" xmlns="http://www.w3.org/2000/svg">
<rect x="117" y="8.22852" width="16" height="16" rx="1" fill="#00B67A"/>
<path d="M125 10.2285L126.347 14.3744H130.706L127.18 16.9367L128.527 21.0826L125 18.5203L121.473 21.0826L122.82 16.9367L119.294 14.3744H123.653L125 10.2285Z" fill="white"/>
<rect x="137" y="8.22852" width="16" height="16" rx="1" fill="#00B67A"/>
<path d="M145 10.2285L146.347 14.3744H150.706L147.18 16.9367L148.527 21.0826L145 18.5203L141.473 21.0826L142.82 16.9367L139.294 14.3744H143.653L145 10.2285Z" fill="white"/>
<rect x="157" y="8.22852" width="16" height="16" rx="1" fill="#00B67A"/>
<path d="M165 10.2285L166.347 14.3744H170.706L167.18 16.9367L168.527 21.0826L165 18.5203L161.473 21.0826L162.82 16.9367L159.294 14.3744H163.653L165 10.2285Z" fill="white"/>
<rect x="177" y="8.22852" width="16" height="16" rx="1" fill="#00B67A"/>
<path d="M185 10.2285L186.347 14.3744H190.706L187.18 16.9367L188.527 21.0826L185 18.5203L181.473 21.0826L182.82 16.9367L179.294 14.3744H183.653L185 10.2285Z" fill="white"/>
<rect x="197" y="8.22852" width="16" height="16" rx="1" fill="#00B67A"/>
<path d="M205 10.2285L206.347 14.3744H210.706L207.18 16.9367L208.527 21.0826L205 18.5203L201.473 21.0826L202.82 16.9367L199.294 14.3744H203.653L205 10.2285Z" fill="white"/>
<path d="M26.5452 9.3103H36.7631V11.2763H32.7399V22.3591H30.5347V11.2763H26.5283L26.5452 9.3103ZM36.3254 12.9118H38.2107V14.7386H38.2444C38.3117 14.4776 38.4296 14.234 38.5979 13.9905C38.7662 13.7469 38.9682 13.5207 39.2207 13.3293C39.4564 13.1205 39.7257 12.964 40.0287 12.8422C40.3149 12.7204 40.6179 12.6508 40.9209 12.6508C41.1566 12.6508 41.3249 12.6682 41.4091 12.6682C41.4933 12.6856 41.5943 12.703 41.6784 12.703V14.7038C41.5438 14.669 41.3923 14.6516 41.2408 14.6342C41.0893 14.6168 40.9546 14.5994 40.8031 14.5994C40.4664 14.5994 40.1466 14.669 39.8436 14.8082C39.5406 14.9474 39.2881 15.1561 39.0524 15.4171C38.8336 15.6955 38.6484 16.0261 38.5137 16.4262C38.3791 16.8264 38.3117 17.2961 38.3117 17.8181V22.3069H36.2917L36.3254 12.9118ZM50.9368 22.3591H48.9505V21.0368H48.9168C48.6643 21.5239 48.294 21.8893 47.8058 22.1851C47.3176 22.4808 46.8126 22.62 46.3076 22.62C45.1125 22.62 44.2371 22.3243 43.6984 21.6979C43.1598 21.089 42.8904 20.1495 42.8904 18.9142V12.9118H44.9104V18.7054C44.9104 19.5405 45.062 20.1321 45.3818 20.4626C45.6848 20.8106 46.1225 20.9846 46.678 20.9846C47.0988 20.9846 47.4523 20.915 47.7385 20.7758C48.0246 20.6366 48.2603 20.4626 48.4286 20.2365C48.6138 20.0103 48.7316 19.7319 48.8158 19.4187C48.9 19.1056 48.9336 18.7576 48.9336 18.3922V12.9118H50.9537V22.3591H50.9368ZM54.3708 19.3317C54.4382 19.9407 54.657 20.3583 55.0442 20.6192C55.4314 20.8628 55.9027 20.9846 56.4414 20.9846C56.6265 20.9846 56.8454 20.9672 57.081 20.9324C57.3167 20.8976 57.5524 20.8454 57.7544 20.7584C57.9732 20.6714 58.1415 20.5496 58.2762 20.3756C58.4109 20.2017 58.4782 19.9929 58.4614 19.7319C58.4445 19.4709 58.3604 19.2448 58.1752 19.0708C57.99 18.8968 57.7712 18.775 57.5019 18.6532C57.2325 18.5488 56.9127 18.4618 56.5592 18.3922C56.2057 18.3226 55.8522 18.2357 55.4819 18.1487C55.1115 18.0617 54.7412 17.9573 54.3877 17.8355C54.0342 17.7137 53.7312 17.5571 53.445 17.3309C53.1757 17.1222 52.94 16.8612 52.7885 16.5306C52.6202 16.2 52.536 15.8173 52.536 15.3301C52.536 14.8082 52.6538 14.3906 52.9063 14.0426C53.142 13.6947 53.4618 13.4163 53.8322 13.2075C54.2025 12.9988 54.6234 12.8422 55.0779 12.7552C55.5324 12.6682 55.97 12.6334 56.374 12.6334C56.8454 12.6334 57.2999 12.6856 57.7207 12.79C58.1415 12.8944 58.5455 13.0509 58.8822 13.2945C59.2357 13.5207 59.5219 13.8339 59.7407 14.1992C59.9764 14.5646 60.1111 15.017 60.1784 15.5389H58.0742C57.9732 15.0344 57.7544 14.7038 57.4177 14.5298C57.0642 14.3558 56.677 14.2688 56.2225 14.2688C56.0879 14.2688 55.9027 14.2862 55.7175 14.3036C55.5155 14.3384 55.3472 14.3732 55.162 14.4428C54.9937 14.5124 54.8422 14.6168 54.7244 14.7386C54.6065 14.8604 54.5392 15.0344 54.5392 15.2431C54.5392 15.5041 54.6234 15.6955 54.7917 15.8521C54.96 16.0087 55.1789 16.1305 55.465 16.2522C55.7344 16.3566 56.0542 16.4436 56.4077 16.5132C56.7612 16.5828 57.1315 16.6698 57.5019 16.7568C57.8722 16.8438 58.2257 16.9482 58.5792 17.07C58.9327 17.1917 59.2526 17.3483 59.5219 17.5745C59.7912 17.7833 60.0269 18.0443 60.1952 18.3574C60.3636 18.6706 60.4477 19.0708 60.4477 19.5231C60.4477 20.0799 60.3299 20.5496 60.0774 20.9498C59.8249 21.3326 59.5051 21.6631 59.1179 21.9067C58.7307 22.1503 58.2762 22.3243 57.8049 22.4461C57.3167 22.5504 56.8454 22.62 56.374 22.62C55.8017 22.62 55.263 22.5504 54.7749 22.4113C54.2867 22.2721 53.849 22.0633 53.4955 21.8023C53.142 21.5239 52.8558 21.1934 52.6538 20.7758C52.4518 20.3756 52.334 19.8885 52.3172 19.3144H54.354V19.3317H54.3708ZM61.0201 12.9118H62.5519V10.0584H64.5719V12.8944H66.3899V14.4428H64.5719V19.4883C64.5719 19.7145 64.5888 19.8885 64.6056 20.0625C64.6224 20.2191 64.6729 20.3582 64.7234 20.4626C64.7908 20.567 64.8918 20.654 65.0096 20.7062C65.1443 20.7584 65.3126 20.7932 65.5483 20.7932C65.6829 20.7932 65.8344 20.7932 65.9691 20.7758C66.1038 20.7584 66.2553 20.741 66.3899 20.7062V22.3243C66.1711 22.3591 65.9523 22.3765 65.7334 22.3939C65.5146 22.4287 65.3126 22.4287 65.0769 22.4287C64.5383 22.4287 64.1174 22.3765 63.7976 22.2721C63.4777 22.1677 63.2252 22.0111 63.0401 21.8197C62.8549 21.6109 62.7371 21.3674 62.6697 21.0716C62.6024 20.7758 62.5687 20.4104 62.5519 20.0277V14.4602H61.0201V12.877V12.9118ZM67.8039 12.9118H69.7061V14.1992H69.7398C70.026 13.6425 70.4131 13.2597 70.9181 13.0161C71.4231 12.7726 71.9618 12.6508 72.5678 12.6508C73.2917 12.6508 73.9145 12.7726 74.4532 13.0509C74.9918 13.3119 75.4295 13.6599 75.783 14.1296C76.1365 14.582 76.4058 15.1213 76.5742 15.7303C76.7425 16.3392 76.8435 17.0004 76.8435 17.6789C76.8435 18.3226 76.7593 18.9316 76.6078 19.5231C76.4395 20.1147 76.2038 20.654 75.884 21.1064C75.5642 21.5587 75.1602 21.9241 74.6552 22.2025C74.1502 22.4808 73.5778 22.62 72.9045 22.62C72.6183 22.62 72.3153 22.5852 72.0291 22.533C71.743 22.4808 71.4568 22.3939 71.1875 22.2721C70.9181 22.1503 70.6656 21.9937 70.4468 21.8023C70.2111 21.6109 70.026 21.3848 69.8745 21.1412H69.8408V25.8561H67.8208V12.9118H67.8039ZM74.8572 17.6441C74.8572 17.2265 74.8067 16.809 74.6888 16.4088C74.5878 16.0087 74.4195 15.6607 74.2007 15.3475C73.9818 15.0344 73.7125 14.7908 73.4095 14.5994C73.0896 14.408 72.7193 14.321 72.3153 14.321C71.4736 14.321 70.834 14.6168 70.3963 15.2257C69.9755 15.8347 69.7566 16.6524 69.7566 17.6615C69.7566 18.1487 69.8071 18.5836 69.925 18.9838C70.0428 19.3839 70.1943 19.7319 70.43 20.0277C70.6488 20.3235 70.9181 20.5496 71.238 20.7236C71.5578 20.8976 71.9113 20.9846 72.3321 20.9846C72.8035 20.9846 73.1738 20.8802 73.4937 20.6888C73.8135 20.4974 74.066 20.2365 74.2848 19.9407C74.4868 19.6275 74.6383 19.2796 74.7225 18.8794C74.8067 18.4618 74.8572 18.0617 74.8572 17.6441ZM78.409 9.3103H80.429V11.2763H78.409V9.3103ZM78.409 12.9118H80.429V22.3591H78.409V12.9118ZM82.2302 9.3103H84.2502V22.3591H82.2302V9.3103ZM90.4113 22.62C89.6874 22.62 89.0309 22.4982 88.4586 22.2373C87.8863 21.9763 87.4149 21.6457 87.0109 21.2108C86.6237 20.7758 86.3207 20.2365 86.1187 19.6275C85.9167 19.0186 85.7989 18.34 85.7989 17.6267C85.7989 16.9134 85.8999 16.2522 86.1187 15.6433C86.3207 15.0344 86.6237 14.5124 87.0109 14.06C87.3981 13.6251 87.8863 13.2771 88.4586 13.0335C89.0309 12.79 89.6874 12.6508 90.4113 12.6508C91.1351 12.6508 91.7916 12.7726 92.364 13.0335C92.9363 13.2771 93.4076 13.6251 93.8116 14.06C94.1988 14.495 94.5018 15.0344 94.7038 15.6433C94.9058 16.2522 95.0236 16.9134 95.0236 17.6267C95.0236 18.3574 94.9226 19.0186 94.7038 19.6275C94.485 20.2365 94.1988 20.7584 93.8116 21.2108C93.4245 21.6457 92.9363 21.9937 92.364 22.2373C91.7916 22.4808 91.1519 22.62 90.4113 22.62ZM90.4113 20.9672C90.8489 20.9672 91.2529 20.8628 91.5728 20.6714C91.9094 20.48 92.1619 20.2191 92.3808 19.9059C92.5996 19.5927 92.7511 19.2274 92.8521 18.8446C92.9531 18.4444 93.0036 18.0443 93.0036 17.6267C93.0036 17.2265 92.9531 16.8264 92.8521 16.4262C92.7511 16.0261 92.5996 15.6781 92.3808 15.3649C92.1619 15.0518 91.8926 14.8082 91.5728 14.6168C91.2361 14.4254 90.8489 14.321 90.4113 14.321C89.9736 14.321 89.5696 14.4254 89.2498 14.6168C88.9131 14.8082 88.6606 15.0692 88.4418 15.3649C88.2229 15.6781 88.0714 16.0261 87.9704 16.4262C87.8694 16.8264 87.8189 17.2265 87.8189 17.6267C87.8189 18.0443 87.8694 18.4444 87.9704 18.8446C88.0714 19.2448 88.2229 19.5927 88.4418 19.9059C88.6606 20.2191 88.9299 20.48 89.2498 20.6714C89.5864 20.8802 89.9736 20.9672 90.4113 20.9672ZM95.6296 12.9118H97.1615V10.0584H99.1815V12.8944H101V14.4428H99.1815V19.4883C99.1815 19.7145 99.1983 19.8885 99.2152 20.0625C99.232 20.2191 99.2825 20.3582 99.333 20.4626C99.4003 20.567 99.5013 20.654 99.6192 20.7062C99.7538 20.7584 99.9222 20.7932 100.158 20.7932C100.293 20.7932 100.444 20.7932 100.579 20.7758C100.713 20.7584 100.865 20.741 101 20.7062V22.3243C100.781 22.3591 100.562 22.3765 100.343 22.3939C100.124 22.4287 99.9222 22.4287 99.6865 22.4287C99.1478 22.4287 98.727 22.3765 98.4072 22.2721C98.0873 22.1677 97.8348 22.0111 97.6497 21.8197C97.4645 21.6109 97.3467 21.3674 97.2793 21.0716C97.212 20.7758 97.1783 20.4104 97.1615 20.0277V14.4602H95.6296V12.877V12.9118Z" fill="white"/>
<path d="M24.1897 9.31045H14.9481L12.1033 0.228516L9.24158 9.31045L0 9.29305L7.47406 14.9127L4.61237 23.9947L12.0864 18.375L19.5605 23.9947L16.7156 14.9127L24.1897 9.31045Z" fill="#00B67A"/>
<path d="M17.3555 16.9654L16.7159 14.9124L12.1035 18.3746L17.3555 16.9654Z" fill="#005128"/>
</svg>
