<svg width="55" height="11" viewBox="0 0 55 11" fill="none" xmlns="http://www.w3.org/2000/svg">
<path d="M53.9535 1.66144C53.262 1.16704 52.2153 0.917691 50.8434 0.917691H47.2504L45.9146 8.48491H41.2077L41.5102 6.76807H44.3456L44.6816 4.83978L41.8478 4.84404L42.1512 3.13486H45.0718L45.4603 0.918133H39.5292L38.2612 8.09611H36.0846L37.3613 0.917755H34.2609L32.9928 8.09573H30.8725L32.1503 0.917755H29.0516L27.7142 8.48497H22.9734L23.2731 6.76813H26.1199L26.4563 4.85079L23.6122 4.84782L23.9139 3.13524H26.8673L27.2534 0.917572H8.77109L7.71911 6.91404L5.62414 0.917572H2.40742L0.676136 10.7038H3.74814L4.79604 4.54195L6.82897 10.7038H17.8388L19.1774 3.1343H20.8993L19.5607 10.7038H48.5296L49.3696 5.92564L50.7281 10.7038H53.8018L52.3939 6.79945L52.716 6.72712C53.4254 6.56841 53.9787 6.2276 54.3641 5.7166C54.749 5.20091 54.9451 4.53884 54.9451 3.74357C54.9451 2.81771 54.6205 2.13652 53.9527 1.66088L53.9535 1.66144ZM15.1655 8.48491H10.463L10.7668 6.76807H13.7163L14.0507 4.83431H11.1296L11.4109 3.13534H16.1065L15.1646 8.48489L15.1655 8.48491ZM51.421 5.18861C51.1119 5.41411 50.6638 5.52388 50.051 5.52388H49.4434L49.9095 2.89772H50.3563C50.8652 2.89772 51.2363 2.98281 51.4923 3.15641C51.6921 3.29256 51.9298 3.5619 51.9298 4.0712C51.9291 4.68731 51.6526 5.01834 51.4201 5.18853L51.421 5.18861Z" fill="white"/>
</svg>
