<svg width="39" height="12" viewBox="0 0 39 12" fill="none" xmlns="http://www.w3.org/2000/svg">
<path d="M30.4256 1.16547L33.5145 0.6646V11.5926H30.4256V1.16547ZM34.9593 1.16547V11.5471H38.0481V0.619066L34.9593 1.16547ZM25.9915 11.5926H29.0804V3.57875H25.9915V11.5926ZM5.4156 4.71708C5.01703 4.67155 4.12026 4.62602 4.12026 3.89748C4.12026 2.98681 5.4156 2.98681 5.9138 2.98681C6.76076 2.98681 7.90663 3.21448 8.70376 3.44215C8.70376 3.44215 9.15215 3.57875 9.55071 3.71535H9.60054V1.25654H9.55071C8.5543 0.937801 7.45825 0.6646 5.4156 0.6646C1.92815 0.6646 0.682632 2.53147 0.682632 4.12515C0.682632 5.03582 1.13102 7.22143 5.11667 7.4491C5.46542 7.4491 6.36219 7.49463 6.36219 8.2687C6.36219 8.90617 5.61488 9.27044 4.36936 9.27044C3.0242 9.27044 1.67905 8.9517 0.881915 8.63297V11.1828C2.07761 11.456 3.42277 11.5926 5.01703 11.5926C8.45466 11.5926 9.9991 9.81684 9.9991 8.08657C9.9991 6.17416 8.3052 4.89922 5.4156 4.71708ZM24.198 3.48768C21.3084 3.57875 19.8636 4.76262 19.8636 7.08483V11.5926H23.0023V7.94997C23.0023 6.53843 23.2016 5.94649 25.045 5.90096V3.53321C24.746 3.44215 24.198 3.48768 24.198 3.48768ZM15.7783 3.57875C15.7285 3.76088 15.2303 5.03582 13.9848 6.35629V0.6646L10.7962 1.25654V11.5926H13.9848V8.4053C14.9313 9.68024 15.3797 11.5926 15.3797 11.5926H19.2159C18.8174 10.1356 17.1733 7.49463 17.1733 7.49463C18.6679 5.76436 19.3156 3.89748 19.4152 3.62428H15.7783V3.57875ZM27.536 2.85021C28.3829 2.85021 29.0804 2.21274 29.0804 1.43867C29.0804 0.6646 28.3829 0.0271301 27.536 0.0271301C26.689 0.0271301 25.9915 0.6646 25.9915 1.43867C25.9915 2.21274 26.689 2.85021 27.536 2.85021Z" fill="white"/>
</svg>
