<svg width="60" height="48" viewBox="0 0 60 48" fill="none" xmlns="http://www.w3.org/2000/svg"><path fill-rule="evenodd" clip-rule="evenodd" d="M4.718 47.525c-.257 0-.527-.023-.81-.076-.894-.19-1.627-.608-2.132-1.212-1.18-1.315-1.304-2.56-1.33-3.724-.004-.88 0-3.343 0-3.343l.002-3.985-.002-7.663.002-3.002c-.018-1.675.075-3.388.87-4.524.9-1.307 2.416-2.045 3.53-2.433 8.495-2.777 15.819-5.338 22.901-7.814 7.107-2.485 14.456-5.054 22.977-7.84a63.31 63.31 0 001.766-.562l.306-.104.528-.181c1.703-.591 3.173-1.104 5.034.41l.003.003c1.138.94 1.297 2.296 1.309 3.373a831.957 831.957 0 000 4.827v7.946c0 .036.007 3.66 0 4.972v.381c.002.5.004 1.015 0 1.615-.007 1.3-.245 2.388-.706 3.23-.752 1.404-2.147 2.133-3.186 2.495-8.459 2.879-16.676 5.7-24.623 8.426-7.919 2.717-16.107 5.527-24.533 8.395-.535.2-1.167.39-1.906.39z" fill="#000"/><path fill-rule="evenodd" clip-rule="evenodd" d="M55.829 1.317c-.683 0-1.382.242-2.229.537-.174.06-.352.122-.536.184l-.305.103c-.48.162-.5.168-1.779.567-8.507 2.78-15.852 5.349-22.954 7.832-7.087 2.478-14.415 5.04-22.91 7.817-.987.345-2.335.994-3.108 2.115-.751 1.074-.73 3.078-.72 4.04l-.002 3.007.002 7.662-.002 3.985s-.004 2.461 0 3.333c.028 1.25.22 2.176 1.125 3.183.392.47.963.789 1.66.937.883.167 1.613-.035 2.268-.28a9883.713 9883.713 0 0024.543-8.4c7.947-2.727 16.165-5.546 24.622-8.424.893-.312 2.094-.931 2.72-2.1.395-.722.598-1.674.604-2.834.003-.599.002-1.11 0-1.607v-.387c.008-1.311 0-4.932 0-4.968V9.671c0-.03-.006-3.025 0-4.11a37.12 37.12 0 000-.708c-.01-.95-.137-2.017-1.002-2.731-.725-.59-1.354-.805-1.997-.805z" fill="#000"/><path d="M47.675 7.048c2.81-.963 5.292-1.798 8.104-2.756.116-.038.158.005.158.093V19.87c-.014 2.865 0 4.88 0 4.88s.007 1.277.005 1.915c0 .045-.04.073-.079.084l-8.067 2.728a.081.081 0 01-.12-.08c-.012-1.463-.002-4.388-.002-4.388V8.083s.003-.76 0-1.035zm-1.404.412c.104-.026.244.053.244.157.007.81 0 2.627 0 2.627v14.667s-.027 1.48 0 2.543c.009.324.008.65.01.899.012.081-.103.119-.139.046l-8.184-10.532c-.044-.066-.12-.12-.122-.204-.002-2.464-.007-4.906-.002-7.368 0-.036.02-.07.047-.082 2.703-.916 5.444-1.836 8.146-2.752zm-17.306 5.908c1.207-.401 2.175-.728 3.382-1.13.094-.04.138.072.19.129l13.534 17.42c.046.068.136.13.103.222-2.72.933-5.445 1.852-8.166 2.782-.04.018-.087.016-.111-.025-.793-1.046-1.58-2.098-2.375-3.145-2.187.743-4.375 1.486-6.563 2.227-.058.03-.122-.024-.111-.085-.013-1.405.007-2.773-.006-4.177.005-.111.023-.15.153-.194 1.326-.463 2.512-.872 3.839-1.335-1.358-1.806-2.542-3.391-3.901-5.196-.104-.157-.086-.156-.086-.192v-3.633s-.003-.696 0-1.042c.005-.709-.004-1.255 0-1.97 0-.13-.002-.332 0-.474 0-.16.032-.154.117-.182zm-1.486.525c.202-.067.338.03.338.18v1.905s-.007 1.723 0 4.184c.003 1.064-.003 3.608-.003 3.608l.003 1.204c.008 1.593.001 4.87.001 4.87s-.008 1.378-.001 2.044c.012 1.107.004 2.074 0 3.019 0 .078-.116.092-.147.025-2.67-3.412-5.374-6.847-8.037-10.264-.002-.196 0-.659 0-.659l.002-2.359s-.003-1.656-.002-2.46l.003-1.464v-.325s0-.403-.003-.58c0-.237.014-.26.103-.308 2.652-.9 5.09-1.722 7.743-2.62zm-14.957 5.118c.056-.025.129.021.119.09-.032 7.386.027 14.62 0 22.007-.003.096.044.336-.141.386-2.708.918-5.343 1.808-8.05 2.724-.19.064-.19-.073-.19-.14-.004-.525 0-1.565 0-1.565V26.656l.003-3.886-.003-.764c0-.162.056-.206.161-.252l8.101-2.743zm1.238.174a.088.088 0 01.12.031c4.468 5.7 8.985 11.401 13.453 17.102a.08.08 0 01-.037.142c-2.699.915-5.398 1.829-8.097 2.74-.086.044-.132-.059-.176-.112l-5.199-6.773c-.035-.05-.092-.095-.09-.162.014-4.297-.01-8.594 0-12.892 0-.027.007-.055.026-.076z" fill="#FFF200"/></svg>